Coordinates
version=1
nRows=6
nColumns=63
inDegrees=yes

Units are S.I. units (second, meters, Newtons, ...)
If the header above contains a line with 'inDegrees', this indicates whether rotational values are in degrees (yes) or radians (no).

endheader
time	pelvis_tilt	pelvis_list	pelvis_rotation	pelvis_tx	pelvis_ty	pelvis_tz	hip_flexion_r	hip_adduction_r	hip_rotation_r	knee_angle_r	knee_angle_r_beta	ankle_angle_r	subtalar_angle_r	mtp_angle_r	hip_flexion_l	hip_adduction_l	hip_rotation_l	knee_angle_l	knee_angle_l_beta	ankle_angle_l	subtalar_angle_l	mtp_angle_l	L5_S1_Flex_Ext	L5_S1_Lat_Bending	L5_S1_axial_rotation	L4_L5_Flex_Ext	L4_L5_Lat_Bending	L4_L5_axial_rotation	L3_L4_Flex_Ext	L3_L4_Lat_Bending	L3_L4_axial_rotation	L2_L3_Flex_Ext	L2_L3_Lat_Bending	L2_L3_axial_rotation	L1_L2_Flex_Ext	L1_L2_Lat_Bending	L1_L2_axial_rotation	L1_T12_Flex_Ext	L1_T12_Lat_Bending	L1_T12_axial_rotation	Abs_r3	Abs_r2	Abs_r1	Abs_t1	Abs_t2	neck_flexion	neck_bending	neck_rotation	arm_flex_r	arm_add_r	arm_rot_r	elbow_flex_r	pro_sup_r	wrist_flex_r	wrist_dev_r	arm_flex_l	arm_add_l	arm_rot_l	elbow_flex_l	pro_sup_l	wrist_flex_l	wrist_dev_l
      2.87500000	     -0.96081863	      4.88669310	     94.54170030	      0.19860819	      0.82673414	      0.73089930	     -8.59068380	     -1.65395168	    -13.88071002	      9.63154104	      0.16810210	     32.24655754	     10.64812544	      0.00000000	     -8.88808409	      0.59382415	      2.89192936	      5.61938599	      0.09807679	     28.66854754	      6.51627475	      0.00000000	     -0.08103143	     -0.24797240	     -0.60414075	     -0.15048347	     -0.32980329	     -0.64189954	     -0.13312654	     -0.60292008	     -0.64189954	     -0.09261082	     -0.60292008	     -0.52862315	     -0.07524579	     -0.50566531	     -0.49086436	     -0.04630136	     -0.38410924	     -0.45310556	     -0.57879942	     -2.80511334	     -3.36004959	      0.00000000	      0.00000000	      7.81540911	     10.19414829	      3.58140787	     50.40245494	    -11.55382757	     11.35588124	    142.74752603	     89.24027735	     -1.06681561	     23.31831747	     48.78380091	     -1.04758440	      7.04589802	    133.84725721	     89.26722215	     11.91497283	     -1.21833750
      2.90000000	     -0.64240783	      4.88578459	     93.95281714	      0.19950735	      0.82684303	      0.72978097	     -8.24430475	     -1.28754647	    -12.00713578	     10.09681582	      0.17622268	     32.04337285	      8.53471211	      0.00000000	     -9.07619881	      0.40320454	      2.62035121	      5.37630211	      0.09383417	     28.57237241	      5.83341076	      0.00000000	     -0.07784991	     -0.20521973	     -0.46679952	     -0.14457507	     -0.27294224	     -0.49597449	     -0.12789962	     -0.49897126	     -0.49597449	     -0.08897466	     -0.49897126	     -0.40844958	     -0.07229143	     -0.41848408	     -0.37927461	     -0.04448344	     -0.31788537	     -0.35009964	     -0.55607413	     -2.32148666	     -2.59619891	      0.00000000	      0.00000000	      7.68733997	     10.28266458	      4.50879536	     50.23803289	    -11.83003142	     12.15826421	    142.50097604	     89.26137110	     -2.35048951	     23.57413339	     48.44639372	     -0.92329572	      6.05331821	    134.85981756	     89.21460016	     15.11208913	      3.01513132
      2.92500000	     -0.57208578	      4.93217064	     94.02745991	      0.19985181	      0.82718289	      0.72872233	     -8.19653711	     -1.15133078	    -12.24766453	     10.28690062	      0.17954029	     31.90672276	      8.30087002	      0.00000000	     -9.14043570	      0.33755212	      2.55228461	      5.41654284	      0.09453651	     28.59258601	      5.77960166	      0.00000000	     -0.08333369	     -0.20433193	     -0.37888814	     -0.15475900	     -0.27176147	     -0.40256865	     -0.13690893	     -0.49681267	     -0.40256865	     -0.09524208	     -0.49681267	     -0.33152712	     -0.07738367	     -0.41667368	     -0.30784662	     -0.04761687	     -0.31651017	     -0.28416611	     -0.59524425	     -2.31144371	     -2.10726218	      0.00000000	      0.00000000	      7.84453027	     10.23667464	      4.56891919	     49.91571718	    -11.98000045	     12.27636244	    141.27961172	     89.27202056	     -2.38906155	     23.56100360	     47.95303764	     -0.97832745	      6.35979853	    134.80720076	     89.23108439	     15.10960991	      3.23481157
      2.95000000	     -0.29467648	      4.98600456	     93.19585552	      0.20109525	      0.82760395	      0.72799067	     -7.84098212	     -0.82449790	     -9.88064038	     10.82323286	      0.18890105	     31.49363167	      5.66232793	      0.00000000	     -9.23374568	      0.21597684	      1.60800283	      5.47640921	      0.09558137	     28.59572010	      5.66906286	      0.00000000	     -0.07548811	     -0.16614448	     -0.16993737	     -0.14018897	     -0.22097216	     -0.18055845	     -0.12401942	     -0.40396369	     -0.18055845	     -0.08627536	     -0.40396369	     -0.14869520	     -0.07009826	     -0.33880182	     -0.13807411	     -0.04313391	     -0.25735780	     -0.12745303	     -0.53920403	     -1.87945959	     -0.94514067	      0.00000000	      0.00000000	      7.48580077	      9.41807268	      5.50497941	     49.66259607	    -12.63837788	     14.36418520	    137.88794178	     89.26871705	     -7.56292227	     16.18147357	     46.91477614	     -1.14731494	      6.92958197	    134.98083387	     89.24846496	     11.54299066	      4.10638128
      2.97500000	     -0.15467105	      5.09838215	     92.58924312	      0.20193796	      0.82832280	      0.72749768	     -7.66796138	     -0.73854832	     -9.25603926	     11.22854717	      0.19597512	     31.33149062	      5.19620670	      0.00000000	     -9.35154771	      0.22096436	      0.93586342	      5.53686339	      0.09663650	     28.43179144	      5.46994810	      0.00000000	     -0.06888409	     -0.14235813	      0.02223469	     -0.12792464	     -0.18933631	      0.02362436	     -0.11316967	     -0.34612956	      0.02362436	     -0.07872763	     -0.34612956	      0.01945536	     -0.06396577	     -0.29029670	      0.01806569	     -0.03936037	     -0.22051274	      0.01667602	     -0.49203217	     -1.61038363	      0.12366269	      0.00000000	      0.00000000	      6.81509342	      8.40936750	      6.30259938	     49.54812152	    -12.69762400	     14.98242830	    134.69250038	     89.24729645	     -8.22173085	     12.88107807	     45.65651214	     -1.00511041	      7.06410206	    134.51388635	     89.26118811	      9.11443462	      3.75847095
      3.00000000	     -0.11050059	      5.18438871	     92.47647665	      0.20206020	      0.82907392	      0.72717484	     -7.56902787	     -0.65446842	     -8.80490590	     11.49343191	      0.20059823	     31.19192843	      4.36295970	      0.00000000	     -9.34082147	      0.24506776	      0.58788525	      5.69381270	      0.09937578	     28.32545613	      5.48105354	      0.00000000	     -0.05950347	     -0.12925300	      0.08102171	     -0.11050389	     -0.17190649	      0.08608557	     -0.09775825	     -0.31426574	      0.08608557	     -0.06800651	     -0.31426574	      0.07089400	     -0.05525492	     -0.26357272	      0.06583014	     -0.03400028	     -0.20021290	      0.06076628	     -0.42502733	     -1.46213578	      0.45061846	      0.00000000	      0.00000000	      5.44016739	      7.51766697	      7.42341214	     49.65311761	    -12.67513428	     16.17966152	    131.47301610	     89.24743538	     -9.49390252	      9.33482352	     44.30077871	     -1.14733924	      7.44619446	    133.78550510	     89.26040057	      5.41992917	      2.22593285
